<svg xmlns="http://www.w3.org/2000/svg" width="24" height="24" viewBox="0 0 24 24" preserveAspectRatio="xMinYMid meet"><defs><style>.cls-1,.cls-2{fill:none;stroke-width:0}.cls-2{fill:#212529}</style></defs><path class="cls-2" d="M13.4 20.5H3.5v-2.9l1.8-.9c-.3-.4-.9-1.4-.9-2.5 0-2.2 1.3-3.8 3-3.8s3 1.7 3 3.8-.7 2.2-1 2.6l3.2 1.7c.2.1.8.7.8 1.4v.7zm-8.7-1.2h7l-3-1.5c-.3-.2-.5-.4-.6-.8 0-.3 0-.7.3-.9s.7-1 .7-1.9c0-1.3-.9-2.6-1.8-2.6s-1.8 1.1-1.8 2.6.8 1.9.8 1.9c.2.3.3.6.2.9 0 .3-.3.5-.5.6l-1.3.7v.9zm4.6-2.4zm-.1-.2zm-3.8-.1z" id="path32"/><path class="cls-2" d="M10.7 12.6l1.1-1.4s.3-.4.3-.8c-.9-.7-1.5-1.7-1.5-2.8 0-2.2 2.1-4 4.9-4.1 2.7 0 4.9 1.7 5 4 0 2.3-2.1 4.1-4.9 4.1-.6 0-1.1 0-1.5-.1-.6.5-1.5.7-1.7.8l-1.7.4zm4.8-7.9c-2.1 0-3.7 1.3-3.7 2.9s.4 1.5 1.1 2h.2v1s.1 0 .1-.1l.2-.3h.4c.4.2 1 .3 1.5.3 2.1 0 3.7-1.3 3.7-2.9 0-1.6-1.7-2.8-3.8-2.8z"/><path class="cls-1" d="M13.6 5.7h4v5.9h-4z"/><path class="cls-2" d="M15.7 8.7H15v-.2c0-.2 0-.4.1-.6 0-.2.2-.3.5-.5.2-.2.4-.3.4-.4 0 0 .1-.2.1-.3s0-.3-.2-.4c-.1-.1-.3-.2-.5-.2s-.4 0-.5.2c-.1.1-.2.3-.3.5h-.7c0-.4.2-.7.4-1 .3-.2.6-.4 1.1-.4s.8.1 1.1.4.4.5.4.8 0 .3-.1.5-.3.4-.6.6c-.2.1-.3.3-.3.3v.5zM15 9.8V9h.8v.8H15z"/></svg>